<svg xmlns="http://www.w3.org/2000/svg" viewBox="0 0 600 438" width="600" height="438" role="img" aria-labelledby="title desc">
<title id="title">함수의 두 가지 묶음</title><desc id="desc">findManager groups findEmployee and managerOf; managerEmailOf groups managerOf and emailOf. The application order is unchanged.</desc>
<style>text{font-family:system-ui,-apple-system,'Noto Sans KR',sans-serif;fill:#20252b;font-size:22px}.label{font-size:23px;font-weight:600}.code{font-family:ui-monospace,monospace;font-size:21px}.muted{fill:#52606d;font-size:20px}.box{fill:#fff;stroke:#a9b4bf;stroke-width:1.5}.group{fill:#eef4fb;stroke:#386ba2;stroke-width:2}.line{fill:none;stroke:#52606d;stroke-width:2;marker-end:url(#end)}</style>
<defs><marker id="end" viewBox="0 0 10 10" refX="8" refY="5" markerWidth="6" markerHeight="6" orient="auto-start-reverse"><path d="M0 0 10 5 0 10z" fill="#52606d"/></marker></defs>
<rect width="600" height="438" rx="12" fill="#f8fafc"/><text x="24" y="46" class="label" text-anchor="start">앞의 두 단계를 묶기</text><rect class="group" x="20" y="68" width="366" height="112" rx="10"/><text x="203" y="96" class="code" text-anchor="middle">findManager</text><rect class="box" x="28" y="113" width="156" height="50" rx="6"/><text x="106" y="145" class="code" text-anchor="middle">findEmployee</text><path class="line" d="M186 138h32"/><rect class="box" x="222" y="113" width="156" height="50" rx="6"/><text x="300" y="145" class="code" text-anchor="middle">managerOf</text><path class="line" d="M380 138h32"/><rect class="box" x="416" y="113" width="156" height="50" rx="6"/><text x="494" y="145" class="code" text-anchor="middle">emailOf</text><text x="24" y="238" class="label" text-anchor="start">뒤의 두 단계를 묶기</text><rect class="group" x="214" y="260" width="366" height="112" rx="10"/><text x="397" y="288" class="code" text-anchor="middle">managerEmailOf</text><rect class="box" x="28" y="305" width="156" height="50" rx="6"/><text x="106" y="337" class="code" text-anchor="middle">findEmployee</text><path class="line" d="M186 330h32"/><rect class="box" x="222" y="305" width="156" height="50" rx="6"/><text x="300" y="337" class="code" text-anchor="middle">managerOf</text><path class="line" d="M380 330h32"/><rect class="box" x="416" y="305" width="156" height="50" rx="6"/><text x="494" y="337" class="code" text-anchor="middle">emailOf</text><text x="300" y="412" class="muted" text-anchor="middle">적용 순서는 직원 조회 → 팀장 조회 → 이메일 조회</text></svg>